# xmcd
#
# Track frame offsets: 
#        150
#        3560
#        21842
#        31874
#        46540
#        66493
#        79183
#        92785
#        105326
#        122168
#        134493
#        144502
#        165860
#
# Disc length: 2603 seconds
#
# Revision: 0
# Processed by: cddbd v1.5.2PL0 Copyright (c) Steve Scherf et al.
# Submitted via: ExactAudioCopy v0.99pb4
#
DISCID=9f0a290d
DTITLE=Sam Baker - Cotton
DYEAR=2009
DGENRE=Country
TTITLE0=Dixie
TTITLE1=Cotton
TTITLE2=Moon
TTITLE3=Mennonite
TTITLE4=Signs
TTITLE5=Palestine II
TTITLE6=Who's Gonna Be Your Man
TTITLE7=Say the Right Words
TTITLE8=Angel Hair
TTITLE9=Not Another Mary
TTITLE10=Palestine I
TTITLE11=Bridal Chest
TTITLE12=Snow
EXTD=
EXTT0=
EXTT1=
EXTT2=
EXTT3=
EXTT4=
EXTT5=
EXTT6=
EXTT7=
EXTT8=
EXTT9=
EXTT10=
EXTT11=
EXTT12=
PLAYORDER=
